:FULLY-SPECIFIED
:FORCE-ALL-JOINTS-BE-3DOF
:DEGREES
238
root 6.67816 15.8827 -25.6051 10.083 24.8842 -1.63703
lfemur -22.0364 16.3408 -3.90722
ltibia 32.6139 -0 0
lfoot -27.0425 -6.00586 0.0529837
ltoes 39.3748 -0 0
rfemur -16.0263 -3.50118 -1.32699
rtibia 38.0826 -0 0
rfoot -40.4403 -12.971 1.91829
rtoes 58.4069 -0 0
lowerback -1.41343 -1.76581 1.47099
upperback -1.25281 -2.31313 -0.209959
thorax -0.54002 -1.199 -1.12137
lowerneck -10.445 -2.9713 2.87735
upperneck 2.89631 -4.37127 0.558112
head 2.71119 -2.10391 -0.54054
lclavicle -2.62199e-14 -1.02486e-14 2.36306e-30
lhumerus -57.9754 -37.1248 121.091
lradius 60.9387 -0 0
lwrist 20.9493 0 0
lhand 13.6803 17.3479 1.25046
lfingers 7.12502 -0 0
lthumb 38.2856 40.3583 0.0801133
rclavicle -2.62199e-14 -1.02486e-14 2.36306e-30
rhumerus -22.7236 -16.6877 -42.266
rradius 53.2731 -0 0
rwrist 5.81917 0 0
rhand -23.5467 -39.8758 1.74796
rfingers 7.12502 -0 0
rthumb 2.91252 -69.5539 1.68388
239
root 6.70403 15.9043 -25.6153 10.03 26.4255 -1.96781
lfemur -23.7241 17.4681 -4.67988
ltibia 34.1486 -0 0
lfoot -26.2222 -5.40185 0.0812976
ltoes 38.8461 -0 0
rfemur -15.3384 -2.74904 -0.866571
rtibia 38.0001 -0 0
rfoot -40.2886 -14.7647 1.69242
rtoes 58.0827 -0 0
lowerback -1.2682 -1.86989 1.51598
upperback -1.26444 -2.44958 0.167996
thorax -0.619244 -1.26472 -0.74601
lowerneck -10.3812 -3.20957 2.57277
upperneck 2.83368 -4.64459 0.543871
head 2.68245 -2.24579 -0.505909
lclavicle -2.60438e-14 -7.44255e-15 2.03667e-30
lhumerus -57.7146 -36.6719 121.214
lradius 61.1522 -0 0
lwrist 20.5829 0 0
lhand 12.639 16.7972 1.15721
lfingers 7.12502 -0 0
lthumb 37.3378 40.3288 0.0777687
rclavicle -2.60438e-14 -7.44255e-15 2.03667e-30
rhumerus -24.3777 -16.3857 -44.3477
rradius 53.9159 -0 0
rwrist 6.89551 0 0
rhand -22.76 -38.4755 1.66244
rfingers 7.12502 -0 0
rthumb 3.67203 -68.1592 1.60132
240
root 6.7222 15.9233 -25.6257 9.95743 28.0057 -2.30853
lfemur -25.4742 18.6117 -5.5251
ltibia 35.7208 -0 0
lfoot -25.3634 -4.76626 0.104281
ltoes 38.2986 -0 0
rfemur -14.6432 -1.99188 -0.390459
rtibia 37.9552 -0 0
rfoot -40.069 -16.6028 1.46086
rtoes 57.7376 -0 0
lowerback -1.11607 -1.98153 1.5579
upperback -1.27596 -2.59584 0.552477
thorax -0.701253 -1.33472 -0.36169
lowerneck -10.3142 -3.45641 2.25624
upperneck 2.76892 -4.92852 0.534825
head 2.65309 -2.39292 -0.468165
lclavicle -2.57981e-14 -4.5761e-15 1.71115e-30
lhumerus -57.4386 -36.2151 121.333
lradius 61.3601 -0 0
lwrist 20.2004 0 0
lhand 11.603 16.244 1.05222
lfingers 7.12502 -0 0
lthumb 36.3942 40.2954 0.0740769
rclavicle -2.57981e-14 -4.5761e-15 1.71115e-30
rhumerus -26.1044 -16.1359 -46.5115
rradius 54.6139 -0 0
rwrist 7.96853 0 0
rhand -21.9602 -37.0279 1.5533
rfingers 7.12502 -0 0
rthumb 4.44422 -66.7175 1.49604
241
root 6.73215 15.9398 -25.6366 9.86348 29.6245 -2.66049
lfemur -27.2899 19.7682 -6.44736
ltibia 37.33 -0 0
lfoot -24.4656 -4.09864 0.120692
ltoes 37.7322 -0 0
rfemur -13.9412 -1.2305 0.101333
rtibia 37.9497 -0 0
rfoot -39.7786 -18.4852 1.22692
rtoes 57.371 -0 0
lowerback -0.956936 -2.10092 1.59653
upperback -1.28745 -2.75215 0.943291
thorax -0.786105 -1.40908 0.0315008
lowerneck -10.2442 -3.71186 1.92763
upperneck 2.70197 -5.22313 0.531223
head 2.6231 -2.54533 -0.427223
lclavicle -2.54802e-14 -1.65023e-15 1.39225e-30
lhumerus -57.1471 -35.7545 121.45
lradius 61.562 -0 0
lwrist 19.8016 0 0
lhand 10.5739 15.6889 0.935534
lfingers 7.12502 -0 0
lthumb 35.4561 40.2578 0.0689128
rclavicle -2.54802e-14 -1.65023e-15 1.39225e-30
rhumerus -27.9031 -15.9455 -48.7572
rradius 55.3684 -0 0
rwrist 9.0368 0 0
rhand -21.1485 -35.533 1.41898
rfingers 7.12502 -0 0
rthumb 5.22801 -65.2288 1.36655
242
root 6.73337 15.9534 -25.6478 9.74634 31.2814 -3.02523
lfemur -29.1752 20.9337 -7.45132
ltibia 38.9758 -0 0
lfoot -23.5283 -3.39857 0.129201
ltoes 37.1467 -0 0
rfemur -13.2327 -0.465652 0.608773
rtibia 37.985 -0 0
rfoot -39.4147 -20.4119 0.994237
rtoes 56.9825 -0 0
lowerback -0.790698 -2.2282 1.63167
upperback -1.29897 -2.91871 1.34024
thorax -0.873859 -1.48785 0.433475
lowerneck -10.1707 -3.97593 1.5868
upperneck 2.63279 -5.5285 0.533314
head 2.59248 -2.70306 -0.382999
lclavicle -2.50877e-14 1.33403e-15 1.0862e-30
lhumerus -56.84 -35.2907 121.564
lradius 61.7573 -0 0
lwrist 19.3864 0 0
lhand 9.55323 15.1328 0.807282
lfingers 7.12502 -0 0
lthumb 34.5249 40.2161 0.0621506
rclavicle -2.50877e-14 1.33403e-15 1.0862e-30
rhumerus -29.7727 -15.8223 -51.0842
rradius 56.1809 -0 0
rwrist 10.0989 0 0
rhand -20.326 -33.9911 1.25796
rfingers 7.12502 -0 0
rthumb 6.02216 -63.6934 1.21137
243
root 6.72535 15.9639 -25.6594 9.60389 32.9758 -3.40455
lfemur -31.1341 22.1041 -8.54185
ltibia 40.6578 -0 0
lfoot -22.5511 -2.66566 0.128383
ltoes 36.5422 -0 0
rfemur -12.518 0.301885 1.13181
rtibia 38.0629 -0 0
rfoot -38.975 -22.3829 0.766767
rtoes 56.5716 -0 0
lowerback -0.617247 -2.36354 1.66309
upperback -1.3106 -3.09577 1.74314
thorax -0.96458 -1.57111 0.844144
lowerneck -10.0938 -4.24863 1.23361
upperneck 2.5613 -5.84471 0.541351
head 2.56123 -2.86613 -0.335407
lclavicle -2.46179e-14 4.37566e-15 7.99691e-31
lhumerus -56.5172 -34.824 121.674
lradius 61.9456 -0 0
lwrist 18.9545 0 0
lhand 8.54258 14.5761 0.667625
lfingers 7.12502 -0 0
lthumb 33.6019 40.1702 0.0536646
rclavicle -2.46179e-14 4.37566e-15 7.99691e-31
rhumerus -31.7116 -15.7741 -53.4917
rradius 57.0528 -0 0
rwrist 11.1533 0 0
rhand -19.4942 -32.4026 1.06871
rfingers 7.12502 -0 0
rthumb 6.82538 -62.1115 1.02904
